<?xml version="1.0" standalone="no"?>
<!DOCTYPE svg PUBLIC "-//W3C//DTD SVG 20010904//EN"
 "http://www.w3.org/TR/2001/REC-SVG-20010904/DTD/svg10.dtd">
<svg version="1.0" xmlns="http://www.w3.org/2000/svg"
 width="380.000000pt" height="164.000000pt" viewBox="0 0 380.000000 164.000000"
 preserveAspectRatio="xMidYMid meet">

<g transform="translate(0.000000,164.000000) scale(0.100000,-0.100000)"
fill="#000000" stroke="none">
<path d="M1764 1570 c-12 -4 -30 -19 -40 -33 -18 -22 -29 -24 -129 -30 -174
-10 -379 -53 -467 -98 -169 -86 -151 -218 41 -289 63 -24 80 -21 74 12 -3 17
-23 32 -76 58 -46 22 -77 45 -87 62 -14 25 -13 29 10 53 65 70 272 127 515
143 l100 7 25 -28 c35 -39 90 -40 129 -3 22 21 37 26 77 26 63 0 197 -17 293
-36 164 -34 288 -102 275 -152 -7 -26 -71 -69 -138 -92 -51 -17 -67 -39 -48
-68 14 -21 144 33 200 83 40 37 47 47 47 82 0 75 -55 123 -192 169 -107 36
-251 62 -382 70 -96 6 -111 9 -117 26 -6 19 -53 48 -76 47 -7 0 -23 -4 -34 -9z
m26 -26 c11 -12 11 -18 -2 -30 -18 -18 -48 -8 -48 15 0 33 28 42 50 15z"/>
<path d="M1322 1189 c-58 -34 -60 -42 -38 -134 l11 -50 43 103 c24 57 42 106
40 107 -2 2 -27 -10 -56 -26z"/>
<path d="M1421 1203 c-5 -10 -28 -63 -51 -117 -30 -72 -38 -101 -30 -106 7 -4
40 -11 74 -15 69 -7 62 -13 124 96 l32 57 -64 51 c-35 28 -66 51 -70 51 -3 0
-9 -8 -15 -17z m109 -86 c0 -5 -7 -6 -16 -3 -9 3 -33 9 -55 12 -41 7 -45 13
-29 45 11 19 13 18 55 -12 25 -18 45 -37 45 -42z"/>
<path d="M2125 1155 c-55 -54 -16 -146 62 -149 57 -1 93 32 93 86 0 54 -35 88
-90 88 -30 0 -47 -6 -65 -25z m62 -6 c16 -16 5 -39 -17 -39 -23 0 -34 16 -26
35 6 18 28 19 43 4z"/>
<path d="M555 795 c-34 -33 -32 -46 14 -99 52 -60 58 -82 33 -115 -22 -30 -47
-38 -67 -21 -22 18 -18 57 7 74 20 14 20 16 3 22 -42 17 -63 -73 -23 -100 28
-20 51 -20 88 -1 54 28 52 85 -5 152 -19 23 -35 50 -35 61 0 45 72 58 78 14 3
-17 -2 -25 -17 -29 -24 -6 -29 -23 -7 -23 15 0 46 26 46 38 0 4 -7 18 -16 30
-21 30 -68 29 -99 -3z"/>
<path d="M2175 815 c6 -2 22 -6 38 -9 38 -9 37 -48 -3 -88 -17 -17 -33 -28
-35 -26 -3 3 1 26 9 51 13 44 13 47 -4 47 -15 0 -22 -17 -38 -87 -32 -141 -35
-163 -19 -163 8 0 18 23 26 66 11 52 18 68 37 76 18 8 27 8 39 -2 21 -18 12
-87 -15 -114 -18 -19 -19 -19 -26 -1 -5 13 0 24 15 37 28 22 14 24 -17 2 -43
-30 -11 -80 35 -55 64 34 79 128 23 146 l-22 7 21 15 c14 9 21 25 21 48 0 39
-21 55 -67 54 -15 0 -23 -2 -18 -4z"/>
<path d="M1069 803 c-11 -3 -23 -34 -39 -106 -13 -56 -30 -113 -38 -126 -8
-13 -9 -21 -4 -17 6 3 12 1 14 -6 8 -23 26 3 32 46 8 54 36 92 59 83 10 -4 17
-17 17 -29 0 -27 -35 -88 -50 -88 -5 0 -10 -4 -10 -10 0 -18 31 -10 56 15 21
21 25 33 22 73 -3 46 -4 47 -35 47 -38 0 -39 4 -17 69 18 51 17 54 -7 49z"/>
<path d="M1218 802 c-10 -2 -22 -19 -27 -40 -22 -84 -41 -175 -41 -198 0 -39
19 -28 26 15 8 49 38 101 59 101 13 0 15 -7 9 -37 -12 -61 -10 -85 8 -97 14
-8 21 -7 35 9 15 15 15 16 1 6 -24 -18 -31 0 -23 64 6 47 5 56 -10 61 -10 4
-26 2 -37 -5 -17 -10 -18 -9 -12 16 4 16 13 46 21 67 15 44 15 44 -9 38z"/>
<path d="M2122 787 c-23 -25 -33 -61 -17 -64 6 -2 13 9 17 23 4 15 15 35 24
45 25 27 2 24 -24 -4z"/>
<path d="M2858 802 c-39 -8 -77 -242 -42 -256 24 -9 28 -7 14 9 -14 17 -3 94
30 192 10 32 18 58 17 58 -1 1 -10 0 -19 -3z"/>
<path d="M2480 643 c-7 -32 -19 -67 -29 -78 -15 -19 -15 -19 3 -5 18 14 19 13
13 -2 -4 -12 -2 -18 8 -18 9 0 17 14 21 39 8 49 39 101 60 101 13 0 15 -6 8
-37 -12 -61 -10 -85 8 -97 14 -8 21 -7 30 4 7 8 9 12 4 8 -23 -19 -28 -5 -22
57 6 56 4 66 -10 72 -9 3 -26 1 -37 -6 -17 -11 -19 -11 -14 3 5 11 1 16 -13
16 -15 0 -21 -12 -30 -57z"/>
<path d="M714 682 c-48 -32 -44 -142 5 -142 11 0 11 3 -4 13 -14 11 -16 21
-11 51 7 37 36 76 57 76 15 0 5 -96 -12 -116 -9 -12 -9 -13 4 -9 8 4 18 2 22
-4 3 -6 13 -11 22 -11 13 0 13 3 3 15 -12 15 -9 79 6 118 5 14 0 17 -37 17
-24 0 -49 -4 -55 -8z"/>
<path d="M855 665 c-3 -14 -7 -36 -10 -49 -7 -33 11 -76 31 -76 14 0 14 3 4
15 -12 14 -10 55 6 113 5 16 2 22 -10 22 -9 0 -18 -11 -21 -25z"/>
<path d="M935 653 c-3 -21 -8 -48 -11 -60 -2 -12 3 -29 12 -37 20 -21 41 -21
24 -1 -12 14 -10 55 6 113 5 16 2 22 -9 22 -11 0 -18 -13 -22 -37z"/>
<path d="M1330 658 c-31 -51 -21 -118 17 -118 13 0 14 3 5 12 -23 23 -14 77
17 109 l29 29 -24 0 c-17 0 -30 -10 -44 -32z"/>
<path d="M1406 659 c-3 -17 -6 -41 -6 -52 0 -11 -8 -30 -17 -41 -14 -16 -15
-18 -2 -8 13 10 19 9 29 -3 19 -23 31 -18 20 8 -8 15 -6 37 3 75 13 48 13 52
-3 52 -12 0 -20 -11 -24 -31z"/>
<path d="M1510 670 c-39 -39 -34 -115 10 -128 12 -4 13 -2 3 9 -28 29 -6 100
38 125 l24 13 -27 1 c-16 0 -37 -9 -48 -20z"/>
<path d="M1597 683 c-2 -5 -10 -32 -17 -61 -7 -30 -19 -56 -27 -59 -10 -4 -11
-8 -4 -13 19 -11 -10 -85 -33 -83 -12 1 -15 -2 -8 -9 17 -17 46 -4 61 27 8 17
18 31 22 33 4 2 6 9 3 16 -3 7 4 41 16 77 24 77 24 79 6 79 -8 0 -17 -3 -19
-7z"/>
<path d="M1656 659 c-15 -75 -3 -119 33 -119 12 0 12 3 3 12 -14 14 -16 61 -3
106 8 28 7 32 -8 32 -13 0 -21 -10 -25 -31z"/>
<path d="M1740 630 c-7 -33 -17 -63 -21 -66 -4 -2 -6 -10 -3 -17 2 -7 -9 -17
-26 -24 -35 -13 -47 -37 -29 -59 19 -24 52 -13 69 23 9 20 23 33 35 34 17 1
17 2 3 6 -22 6 -22 3 2 88 11 38 20 71 20 72 0 2 -8 3 -19 3 -14 0 -21 -13
-31 -60z m-41 -144 c-13 -28 -24 -33 -35 -14 -4 6 3 19 16 30 28 23 34 18 19
-16z"/>
<path d="M1826 671 c-38 -42 -30 -131 12 -131 12 0 13 3 4 12 -23 23 -14 77
17 109 29 28 29 29 7 29 -13 0 -31 -9 -40 -19z"/>
<path d="M1896 668 c-3 -13 -6 -36 -6 -52 0 -16 -8 -39 -17 -50 -10 -12 -11
-16 -4 -9 11 9 17 9 28 -3 21 -20 35 -17 21 5 -9 15 -9 31 4 75 14 53 14 56
-2 56 -10 0 -20 -10 -24 -22z"/>
<path d="M2320 658 c-31 -51 -21 -118 17 -118 13 0 14 3 5 12 -23 23 -14 77
17 109 l29 29 -24 0 c-17 0 -30 -10 -44 -32z"/>
<path d="M2396 659 c-3 -17 -6 -41 -6 -52 0 -11 -8 -30 -17 -41 -14 -16 -15
-18 -2 -8 13 10 19 9 29 -3 19 -23 31 -18 20 8 -8 15 -6 37 3 75 13 48 13 52
-3 52 -12 0 -20 -11 -24 -31z"/>
<path d="M2663 675 c-30 -21 -40 -78 -19 -110 9 -14 22 -25 28 -25 9 0 9 3 0
12 -27 27 0 111 41 128 21 9 21 9 -3 9 -14 1 -35 -6 -47 -14z"/>
<path d="M2740 666 c-5 -13 -12 -40 -15 -60 -4 -20 -15 -41 -24 -46 -9 -6 -11
-10 -3 -10 22 0 13 -17 -17 -30 -35 -14 -46 -37 -30 -57 19 -22 52 -11 68 22
8 17 18 31 22 33 4 2 6 9 3 17 -3 7 4 43 15 80 25 80 25 75 6 75 -9 0 -20 -11
-25 -24z m-40 -164 c0 -5 -6 -17 -14 -28 -12 -15 -17 -16 -27 -7 -10 10 -9 15
1 28 13 16 40 21 40 7z"/>
<path d="M2907 672 c-29 -32 -33 -86 -8 -111 11 -11 31 -21 44 -21 22 0 22 1
-3 13 -37 19 -35 40 7 62 28 15 38 26 38 45 0 21 -5 26 -31 28 -20 2 -36 -3
-47 -16z m73 -2 c0 -14 -46 -60 -60 -60 -16 0 -12 15 11 44 20 26 49 35 49 16z"/>
<path d="M3037 683 c-14 -13 -6 -40 18 -63 33 -31 30 -65 -5 -65 -22 0 -25 4
-23 34 1 31 0 32 -15 17 -31 -31 18 -77 65 -60 37 13 40 38 8 76 -15 18 -24
39 -22 50 5 17 -13 25 -26 11z"/>
<path d="M1510 510 c-8 -5 -12 -11 -10 -14 3 -2 14 2 24 10 22 15 10 19 -14 4z"/>
<path d="M2778 513 c7 -3 16 -2 19 1 4 3 -2 6 -13 5 -11 0 -14 -3 -6 -6z"/>
<path d="M287 373 c-4 -3 -7 -39 -7 -80 l0 -73 36 0 c62 0 73 13 71 76 -2 42
-7 59 -22 70 -20 15 -67 19 -78 7z m71 -40 c2 -8 -6 -13 -22 -13 -17 0 -26 5
-26 16 0 19 41 16 48 -3z m5 -57 c7 -19 -1 -26 -30 -26 -16 0 -23 6 -23 20 0
14 7 20 24 20 13 0 26 -6 29 -14z"/>
<path d="M1300 372 c-45 -14 -65 -75 -40 -122 12 -22 55 -34 78 -21 18 10 10
16 -32 23 -46 7 -34 93 14 93 13 0 25 5 27 11 4 13 -25 23 -47 16z"/>
<path d="M1865 370 c-7 -12 2 -30 16 -30 12 0 12 27 0 35 -5 3 -12 1 -16 -5z"/>
<path d="M2343 370 c-21 -9 -23 -16 -23 -80 0 -56 3 -70 15 -70 9 0 15 9 15
25 0 20 5 25 24 25 31 0 56 25 56 54 0 38 -46 62 -87 46z m57 -35 c16 -19 4
-35 -26 -35 -19 0 -24 5 -24 25 0 29 29 35 50 10z"/>
<path d="M2695 370 c-4 -6 -3 -16 3 -22 6 -6 12 -6 17 2 4 6 3 16 -3 22 -6 6
-12 6 -17 -2z"/>
<path d="M2930 363 c-32 -22 -22 -55 23 -76 44 -21 40 -37 -9 -37 -42 0 -45
-16 -5 -25 40 -9 71 9 71 41 0 19 -8 28 -36 40 -38 16 -41 40 -5 38 11 0 21 5
21 12 0 19 -37 23 -60 7z"/>
<path d="M760 311 c0 -51 3 -62 22 -76 17 -11 24 -12 27 -3 2 7 -1 14 -7 16
-7 2 -12 27 -12 63 0 46 -3 59 -15 59 -12 0 -15 -13 -15 -59z"/>
<path d="M3150 295 c0 -77 16 -105 22 -37 3 32 6 37 28 37 22 0 25 -5 28 -37
2 -27 8 -38 19 -38 13 0 15 8 10 42 -6 46 -27 68 -64 68 -16 0 -23 6 -23 20 0
11 -4 20 -10 20 -6 0 -10 -32 -10 -75z"/>
<path d="M3277 364 c-8 -8 1 -24 14 -24 5 0 9 7 9 15 0 15 -12 20 -23 9z"/>
<path d="M2200 349 c0 -6 -8 -8 -17 -5 -17 6 -17 5 -1 -7 15 -12 15 -14 0 -24
-9 -7 -12 -12 -6 -12 6 -1 17 6 24 14 7 8 9 15 5 15 -4 0 -2 7 5 15 9 10 9 15
1 15 -6 0 -11 -5 -11 -11z"/>
<path d="M1100 340 c0 -5 5 -10 11 -10 5 0 7 5 4 10 -3 6 -8 10 -11 10 -2 0
-4 -4 -4 -10z"/>
<path d="M1155 340 c-3 -5 -1 -10 4 -10 6 0 11 5 11 10 0 6 -2 10 -4 10 -3 0
-8 -4 -11 -10z"/>
<path d="M1780 285 c0 -51 3 -65 15 -65 11 0 15 11 15 40 0 29 4 40 15 40 8 0
15 7 15 15 0 8 -7 15 -15 15 -8 0 -15 5 -15 10 0 6 -7 10 -15 10 -12 0 -15
-14 -15 -65z"/>
<path d="M2225 340 c-3 -5 -1 -10 4 -10 6 0 11 5 11 10 0 6 -2 10 -4 10 -3 0
-8 -4 -11 -10z"/>
<path d="M3320 285 c0 -51 3 -65 15 -65 11 0 15 11 15 40 0 28 4 40 14 40 8 0
16 7 20 15 4 10 -1 15 -14 15 -11 0 -20 5 -20 10 0 6 -7 10 -15 10 -12 0 -15
-14 -15 -65z"/>
<path d="M423 315 c-47 -33 -13 -93 51 -93 l37 0 -3 52 c-3 49 -4 51 -33 54
-16 1 -40 -4 -52 -13z m57 -40 c0 -18 -5 -25 -19 -25 -11 0 -23 5 -26 10 -11
18 3 40 25 40 15 0 20 -7 20 -25z"/>
<path d="M529 328 c0 -2 -1 -27 -2 -56 -1 -36 2 -52 11 -52 7 0 12 15 12 40 0
36 3 40 24 40 25 0 36 -16 36 -56 0 -13 5 -24 10 -24 18 0 11 76 -8 93 -15 14
-80 25 -83 15z"/>
<path d="M661 317 c-6 -8 -10 -33 -8 -57 2 -39 5 -44 37 -56 35 -13 34 -15 -7
-18 -36 -2 -27 -21 11 -24 26 -2 37 2 45 17 13 24 -9 51 -42 51 -18 1 -16 3
10 15 32 14 52 52 38 74 -9 16 -70 13 -84 -2z m59 -32 c0 -16 -35 -21 -44 -6
-8 12 4 21 26 21 10 0 18 -7 18 -15z"/>
<path d="M834 305 c-20 -30 -10 -63 23 -76 35 -13 53 -11 53 6 0 9 -9 15 -24
15 -14 0 -28 5 -31 10 -4 6 8 10 29 10 28 0 36 4 36 18 0 45 -60 57 -86 17z
m53 -11 c-3 -3 -12 -4 -19 -1 -8 3 -5 6 6 6 11 1 17 -2 13 -5z"/>
<path d="M953 323 c-25 -9 -15 -51 15 -61 l27 -10 -27 -1 c-32 -1 -37 -17 -8
-26 24 -8 60 11 60 30 0 8 -15 21 -32 29 l-33 14 33 1 c34 1 43 15 16 25 -18
7 -33 7 -51 -1z"/>
<path d="M1114 314 c-15 -13 -16 -15 -2 -10 10 3 18 -2 21 -12 3 -9 4 -5 4 11
-1 15 -2 27 -2 27 -1 0 -10 -7 -21 -16z"/>
<path d="M1380 310 c-11 -11 -20 -27 -20 -35 0 -18 35 -55 53 -55 24 0 57 31
57 55 0 51 -54 71 -90 35z m63 -22 c7 -21 -4 -38 -23 -38 -23 0 -34 16 -26 35
7 18 43 20 49 3z"/>
<path d="M1489 325 c-2 -2 -2 -26 -1 -54 5 -60 22 -69 22 -11 0 33 4 40 19 40
21 0 31 -19 31 -56 0 -13 5 -24 10 -24 6 0 10 18 10 41 0 36 2 40 23 37 18 -2
23 -10 25 -40 4 -53 22 -47 22 7 0 32 -5 47 -17 53 -17 9 -137 15 -144 7z"/>
<path d="M1688 319 c-26 -15 -23 -64 4 -83 28 -20 58 -20 58 -1 0 9 -9 15 -25
15 -14 0 -25 5 -25 10 0 6 16 10 35 10 39 0 46 17 17 43 -21 19 -39 21 -64 6z
m45 -26 c-7 -2 -19 -2 -25 0 -7 3 -2 5 12 5 14 0 19 -2 13 -5z"/>
<path d="M1870 328 c-1 -2 -2 -27 -3 -55 -2 -37 1 -53 10 -53 9 0 13 17 13 55
0 30 -4 55 -10 55 -5 0 -10 -1 -10 -2z"/>
<path d="M1927 312 c-23 -26 -21 -58 5 -76 28 -20 58 -20 58 -1 0 8 -8 15 -18
15 -10 0 -23 5 -29 11 -17 17 -4 39 23 39 15 0 24 6 24 15 0 21 -43 19 -63 -3z"/>
<path d="M2022 318 c-20 -20 -14 -38 21 -53 32 -14 32 -14 5 -15 -31 0 -45
-15 -22 -24 25 -10 42 -7 58 10 23 22 20 30 -16 45 l-33 13 28 3 c16 3 26 10
24 16 -5 17 -50 20 -65 5z"/>
<path d="M2457 312 c-24 -27 -21 -59 8 -78 51 -33 104 21 71 71 -20 30 -56 33
-79 7z m61 -35 c2 -9 -4 -20 -12 -23 -21 -8 -46 13 -39 32 8 20 47 13 51 -9z"/>
<path d="M2576 314 c-39 -39 1 -106 52 -88 21 7 28 17 30 44 5 52 -46 80 -82
44z m59 -39 c0 -22 -31 -33 -47 -17 -17 17 -1 44 24 40 15 -2 23 -10 23 -23z"/>
<path d="M2688 260 c3 -48 1 -70 -7 -70 -6 0 -11 -7 -11 -15 0 -20 14 -19 35
1 23 23 18 147 -6 152 -14 3 -16 -6 -11 -68z"/>
<path d="M2758 319 c-12 -6 -18 -22 -18 -44 0 -39 20 -55 70 -55 l31 0 -3 53
c-3 50 -4 52 -33 54 -16 2 -38 -2 -47 -8z m60 -41 c-3 -25 -34 -36 -50 -20
-17 17 -1 42 27 42 22 0 26 -4 23 -22z"/>
<path d="M3040 310 c-38 -38 -5 -90 57 -90 l34 0 -3 53 c-3 50 -4 52 -35 55
-22 2 -38 -3 -53 -18z m68 -32 c-3 -25 -34 -36 -50 -20 -17 17 -1 42 27 42 22
0 26 -4 23 -22z"/>
<path d="M3280 275 c0 -30 5 -55 10 -55 6 0 10 25 10 55 0 30 -4 55 -10 55 -5
0 -10 -25 -10 -55z"/>
<path d="M3407 323 c-25 -25 11 -103 48 -103 8 0 15 -4 15 -9 0 -14 -28 -33
-40 -26 -5 3 -10 -1 -10 -9 0 -24 46 -20 64 6 22 31 22 148 1 148 -11 0 -15
-11 -15 -41 0 -33 -3 -40 -17 -37 -13 2 -19 14 -21 41 -3 35 -11 45 -25 30z"/>
<path d="M3527 312 c-38 -42 -6 -89 61 -90 l33 -1 -3 52 c-3 52 -3 52 -39 55
-24 2 -40 -3 -52 -16z m63 -37 c0 -18 -5 -25 -19 -25 -26 0 -44 23 -29 38 22
22 48 14 48 -13z"/>
<path d="M2225 310 c3 -5 8 -10 11 -10 2 0 4 5 4 10 0 6 -5 10 -11 10 -5 0 -7
-4 -4 -10z"/>
<path d="M2200 289 c0 -5 5 -7 10 -4 6 3 10 8 10 11 0 2 -4 4 -10 4 -5 0 -10
-5 -10 -11z"/>
</g>
</svg>
